<?xml version="1.0" encoding="UTF-8"?>
<svg version="1.1" xmlns="http://www.w3.org/2000/svg" width="130" height="141">
<path d="M0 0 C3.40593964 2.78035889 4.70375129 4.17648851 5.40234375 8.4765625 C5.65039358 15.20367383 5.65039358 15.20367383 3.51367188 17.81982422 C1.70761393 20.42113026 1.5186617 22.1163422 1.3125 25.25 C1.24675781 26.14203125 1.18101563 27.0340625 1.11328125 27.953125 C1.07589844 28.62859375 1.03851563 29.3040625 1 30 C1.61407715 29.97905273 2.2281543 29.95810547 2.86083984 29.93652344 C5.69872017 29.85231966 8.53633652 29.80101577 11.375 29.75 C12.34050781 29.71648438 13.30601563 29.68296875 14.30078125 29.6484375 C24.69200737 29.50895795 32.46977477 32.56595929 40.01953125 39.71484375 C45.75143016 46.32857327 48.35022337 54.04770171 48.21875 62.7578125 C47.52557028 69.86290459 44.76453712 76.02866525 41 82 C40.34 82 39.68 82 39 82 C38.505 83.485 38.505 83.485 38 85 C36.03125 86.53515625 36.03125 86.53515625 33.5 88.0625 C32.6853125 88.56910156 31.870625 89.07570313 31.03125 89.59765625 C23.33784177 93.15684897 15.45086317 93.29754004 7.09765625 93.265625 C5.42104164 93.26849518 5.42104164 93.26849518 3.71055603 93.27142334 C1.3582232 93.27277795 -0.99411729 93.26913238 -3.34643555 93.26074219 C-6.9231873 93.25004281 -10.49943568 93.2606573 -14.07617188 93.2734375 C-16.37239693 93.27211558 -18.66862167 93.26955252 -20.96484375 93.265625 C-22.02243393 93.26967346 -23.08002411 93.27372192 -24.16966248 93.27789307 C-35.94838675 93.20446408 -45.91776251 91.50074851 -54.85546875 83.296875 C-61.27205526 76.26239498 -63.4131586 68.13925773 -63.2734375 58.75 C-62.38162043 49.78086832 -58.39130979 43.14381033 -52 37 C-51.21625 36.236875 -50.4325 35.47375 -49.625 34.6875 C-42.31905547 29.99082137 -34.92277674 29.59348889 -26.4375 29.8125 C-24.92446289 29.83280273 -24.92446289 29.83280273 -23.38085938 29.85351562 C-20.91999379 29.88850424 -18.46029665 29.93758842 -16 30 C-16.11292327 28.56291477 -16.23921666 27.12687623 -16.37109375 25.69140625 C-16.47442017 24.49173218 -16.47442017 24.49173218 -16.57983398 23.26782227 C-16.89737739 20.71375791 -16.89737739 20.71375791 -19.0625 17.9375 C-21.74774473 13.8663225 -21.53628498 11.82656484 -21 7 C-19.22474555 2.79545 -17.06940403 0.98507514 -13 -1 C-8.38269904 -2.50397563 -4.47327979 -1.71130811 0 0 Z M-45 53 C-46.79707498 57.72781875 -47.57427332 62.44151314 -46 67.3125 C-44.15515163 71.38104954 -41.65226785 73.48906585 -38 76 C-34.96990908 77.01003031 -32.87741701 77.14421646 -29.70581055 77.17700195 C-28.62426193 77.18983719 -27.54271332 77.20267242 -26.4283905 77.21589661 C-25.25963882 77.22328354 -24.09088715 77.23067047 -22.88671875 77.23828125 C-21.08325737 77.25038887 -21.08325737 77.25038887 -19.24336243 77.26274109 C-16.69716839 77.27657972 -14.15095583 77.28730286 -11.60473633 77.29516602 C-7.71334677 77.31238563 -3.82280518 77.35627647 0.06835938 77.40039062 C2.54166042 77.41051697 5.01496868 77.41903325 7.48828125 77.42578125 C8.65096024 77.44328934 9.81363922 77.46079742 11.0115509 77.47883606 C17.32171779 77.46191513 21.23993084 77.30654185 26 73 C30.29781354 68.12140084 31.4807495 65.1106756 31.40625 58.67578125 C30.71970223 54.15380798 28.4565356 50.92892351 25 48 C18.78444775 44.60802731 13.21413939 44.53255848 6.22265625 44.53125 C5.09733994 44.52363647 3.97202362 44.51602295 2.81260681 44.50817871 C0.43995373 44.49740472 -1.93274667 44.49451357 -4.30541992 44.49902344 C-7.92252104 44.49999597 -11.53750145 44.45833473 -15.15429688 44.4140625 C-17.46614144 44.40885512 -19.77799333 44.40616731 -22.08984375 44.40625 C-23.16403061 44.38985474 -24.23821747 44.37345947 -25.34495544 44.35656738 C-33.75979616 44.43349546 -39.31165747 46.73837641 -45 53 Z " fill="#A14ED5" transform="translate(74,5)"/>
<path d="M0 0 C-0.4161883 2.9133181 -0.91528116 4.86586184 -2.5 7.375 C-4.69894925 11.2231612 -5.48578587 14.68384238 -4.5625 19.0859375 C-3.04600329 23.72159222 -1.23923095 26.35048066 3 29 C3.99 29.33 4.98 29.66 6 30 C6 30.66 6 31.32 6 32 C13.76372495 31.96174073 21.52697673 31.90208949 29.29030323 31.81609726 C32.89627046 31.7768064 36.50200023 31.74452906 40.1081543 31.72900391 C43.59683452 31.71371434 47.08486107 31.67905681 50.57324791 31.63169098 C52.53317134 31.60991779 54.4932799 31.60753689 56.45332336 31.60565186 C67.60139944 31.42553185 76.25796379 28.99362897 85 22 C84.69868948 29.23145245 81.49684421 33.52072787 76.4453125 38.546875 C73.49675129 41.14405327 70.65179909 42.64361748 67 44 C66.505 44.99 66.505 44.99 66 46 C60.28588228 47.50255269 54.25701186 47.16189651 48.390625 47.16796875 C47.26863708 47.17129715 46.14664917 47.17462555 44.99066162 47.17805481 C42.62040617 47.1831082 40.25014364 47.18546363 37.87988281 47.18530273 C34.27657162 47.18748392 30.67356938 47.20564227 27.0703125 47.22460938 C24.76041771 47.22754478 22.45052147 47.22952859 20.140625 47.23046875 C18.54012299 47.24124702 18.54012299 47.24124702 16.9072876 47.25224304 C5.09400986 47.21664403 -4.89080952 45.52548853 -13.85546875 37.296875 C-17.62166036 33.16801309 -20.90428042 28.58629365 -21.05859375 22.8046875 C-20.48692664 15.62844079 -18.5185508 10.11381288 -13.125 5.1875 C-8.73615215 1.60247044 -5.7520047 0 0 0 Z " fill="#9137C6" transform="translate(33,51)"/>
<path d="M0 0 C0.70253906 0.00386719 1.40507813 0.00773437 2.12890625 0.01171875 C2.83144531 0.00785156 3.53398438 0.00398438 4.2578125 0 C9.50229247 0.01010497 9.50229247 0.01010497 10.62890625 1.13671875 C10.89904063 2.69586392 11.144977 4.25923206 11.37890625 5.82421875 C12.39048418 11.0234318 13.70447982 13.56905836 17.62890625 17.13671875 C22.35648029 19.55303437 26.60212745 19.50127347 31.62890625 18.13671875 C35.65914216 16.15962189 37.27981326 14.77471629 39.44140625 10.82421875 C40.89884607 6.65411636 40.89884607 6.65411636 41.62890625 0.13671875 C46.90890625 0.13671875 52.18890625 0.13671875 57.62890625 0.13671875 C58.37549576 10.58897187 56.67558917 18.15187042 49.80078125 26.3046875 C43.03205328 32.7569912 34.6785456 35.7077137 25.42578125 36.23046875 C15.69950045 35.90444816 8.70255914 32.15271649 1.91015625 25.4375 C-4.58952935 18.34838213 -6.73897308 10.70158139 -6.37109375 1.13671875 C-4.61549433 -0.61888067 -2.33526933 0.00449956 0 0 Z " fill="#8150E7" transform="translate(40.37109375,102.86328125)"/>
<path d="M0 0 C0.70253906 0.00386719 1.40507813 0.00773437 2.12890625 0.01171875 C2.83144531 0.00785156 3.53398438 0.00398438 4.2578125 0 C9.50229247 0.01010497 9.50229247 0.01010497 10.62890625 1.13671875 C11.05343847 3.08491454 11.41923125 5.04609236 11.75390625 7.01171875 C11.94210938 8.08164063 12.1303125 9.1515625 12.32421875 10.25390625 C12.62890625 13.13671875 12.62890625 13.13671875 11.62890625 16.13671875 C14.06874051 23.29842129 17.78047109 28.71250117 24.62890625 32.13671875 C26.83327025 32.36622194 29.04282798 32.54747808 31.25390625 32.69921875 C32.44242188 32.78300781 33.6309375 32.86679688 34.85546875 32.953125 C36.22832031 33.04400391 36.22832031 33.04400391 37.62890625 33.13671875 C31.23584418 36.74115978 23.95979608 36.7359545 16.94140625 35.07421875 C8.3398551 32.36632302 0.98523947 26.25940474 -3.37109375 18.3125 C-5.97392283 12.54372978 -6.61304692 7.42750105 -6.37109375 1.13671875 C-4.61549433 -0.61888067 -2.33526933 0.00449956 0 0 Z " fill="#BA57DD" transform="translate(40.37109375,102.86328125)"/>
<path d="M0 0 C7.49744515 0.38448437 13.47197844 5.03441903 18.375 10.4375 C23.82567458 17.27726616 25.84700549 25.31819374 25 34 C23.66006608 40.28586647 21.41710766 45.57976026 18 51 C17.34 51 16.68 51 16 51 C15.67 51.99 15.34 52.98 15 54 C12.8203125 55.640625 12.8203125 55.640625 10.125 57.25 C9.24070312 57.79140625 8.35640625 58.3328125 7.4453125 58.890625 C5 60 5 60 2 59 C2.50789063 58.69707031 3.01578125 58.39414063 3.5390625 58.08203125 C10.97545354 53.55613783 16.98741118 49.47069093 20 41 C20 40.01 20 39.02 20 38 C19.20335937 38.63228516 19.20335937 38.63228516 18.390625 39.27734375 C17.33101562 40.09912109 17.33101562 40.09912109 16.25 40.9375 C15.55390625 41.48277344 14.8578125 42.02804688 14.140625 42.58984375 C12.03907872 43.97425654 10.45678201 44.56286987 8 45 C9.86862668 42.92374813 11.47888893 41.72489359 13.9375 40.3125 C18.42713656 36.92236627 20.10323259 32.90495402 21.734375 27.62109375 C22.2688975 22.34661442 19.47303345 17.53704101 17 13 C15.11331174 10.84983407 13.40565224 9.62120042 11 8 C10.53207031 7.51015625 10.06414062 7.0203125 9.58203125 6.515625 C7.78441228 4.79346164 6.05532085 3.87875909 3.8125 2.8125 C3.09707031 2.46832031 2.38164063 2.12414063 1.64453125 1.76953125 C1.10183594 1.51558594 0.55914062 1.26164062 0 1 C0 0.67 0 0.34 0 0 Z " fill="#5F58F9" transform="translate(97,36)"/>
<path d="M0 0 C1.875 1.1875 1.875 1.1875 3 3 C3.53520313 6.59350675 3.44814771 8.31881548 1.4375 11.375 C-1.95870843 13.63913895 -4.00099302 13.64269755 -8 13 C-10.5 10.875 -10.5 10.875 -12 8 C-12.0625 4.875 -12.0625 4.875 -11 2 C-7.29764913 -1.27922505 -4.65648071 -1.41718978 0 0 Z " fill="#A030B2" transform="translate(51,60)"/>
<path d="M0 0 C1.9375 1.1875 1.9375 1.1875 3 3 C3.53520313 6.59350675 3.44814771 8.31881548 1.4375 11.375 C-1.8994213 13.5996142 -4.06905293 13.50030235 -8 13 C-9.9375 12 -9.9375 12 -11 10 C-11.46000079 7.23999526 -11.50420748 4.75595226 -11 2 C-7.94260267 -2.03576448 -4.55750868 -1.16009312 0 0 Z " fill="#7233CA" transform="translate(90,60)"/>
<path d="M0 0 C0.66 0 1.32 0 2 0 C2 3.63 2 7.26 2 11 C-0.02253906 11.09087891 -0.02253906 11.09087891 -2.0859375 11.18359375 C-3.8489696 11.26799422 -5.61198984 11.35264247 -7.375 11.4375 C-8.70917969 11.49647461 -8.70917969 11.49647461 -10.0703125 11.55664062 C-10.92109375 11.59853516 -11.771875 11.64042969 -12.6484375 11.68359375 C-13.43395996 11.72025146 -14.21948242 11.75690918 -15.02880859 11.79467773 C-17.07523496 11.890891 -17.07523496 11.890891 -19 13 C-20.0725 13.103125 -21.145 13.20625 -22.25 13.3125 C-30.22143925 14.77393053 -35.34212546 20.69696006 -40 27 C-41.32926838 29.67178528 -42.16222966 32.12016446 -43 35 C-42.34 35.33 -41.68 35.66 -41 36 C-42.98 40.95 -42.98 40.95 -45 46 C-45.33 46 -45.66 46 -46 46 C-46.7519491 36.37087406 -44.91956487 28.04384927 -38.5625 20.5625 C-37.39614486 19.35422512 -36.2107106 18.16382659 -35 17 C-34.21625 16.236875 -33.4325 15.47375 -32.625 14.6875 C-25.31905547 9.99082137 -17.92277674 9.59348889 -9.4375 9.8125 C-7.92446289 9.83280273 -7.92446289 9.83280273 -6.38085938 9.85351562 C-3.92033712 9.88849935 -1.46009418 9.94229145 1 10 C0.67 6.7 0.34 3.4 0 0 Z " fill="#F88CEC" transform="translate(57,25)"/>
<path d="M0 0 C0.66 0 1.32 0 2 0 C2.391875 1.010625 2.78375 2.02125 3.1875 3.0625 C4.90184842 7.05181316 7.03618617 10.8012497 10 14 C10.99 14.33 11.98 14.66 13 15 C13.33 15.66 13.66 16.32 14 17 C14.99 17.33 15.98 17.66 17 18 C17 18.66 17 19.32 17 20 C19.97 20.66 22.94 21.32 26 22 C26 21.34 26 20.68 26 20 C26.52078125 20.15339844 27.0415625 20.30679688 27.578125 20.46484375 C30.63278515 21.13982511 33.63015971 21.34411118 36.75 21.5625 C37.92046875 21.64628906 39.0909375 21.73007813 40.296875 21.81640625 C41.63492188 21.90728516 41.63492188 21.90728516 43 22 C36.60693793 25.60444103 29.33088983 25.59923575 22.3125 23.9375 C14.31727211 21.42048381 7.55270238 16.06307099 3 9 C1.75288165 6.05397704 0.80019936 3.09550804 0 0 Z " fill="#D8AEFE" transform="translate(35,114)"/>
<path d="M0 0 C5.28 0 10.56 0 16 0 C16.68200256 9.54803591 15.28896433 15.9295337 10 24 C9.34 24.33 8.68 24.66 8 25 C8.75 20.25 8.75 20.25 11 18 C13.39642868 12.50231067 13.56726654 6.91402394 14 1 C10.37 1 6.74 1 3 1 C3 2.65 3 4.3 3 6 C1.5 9.3125 1.5 9.3125 0 12 C-0.66 12 -1.32 12 -2 12 C-1.34 8.04 -0.68 4.08 0 0 Z " fill="#BBB1FE" transform="translate(82,103)"/>
<path d="M0 0 C7.49744515 0.38448437 13.47197844 5.03441903 18.375 10.4375 C23.81587355 17.26496736 25.16848139 24.40744924 25 33 C24.67 33 24.34 33 24 33 C24 31.35 24 29.7 24 28 C23.34 28 22.68 28 22 28 C21.91363281 27.443125 21.82726562 26.88625 21.73828125 26.3125 C20.0302499 17.03585265 15.79487061 10.37686993 8 5 C5.37486673 3.51702998 2.74800438 2.25347568 0 1 C0 0.67 0 0.34 0 0 Z " fill="#A09BFE" transform="translate(97,36)"/>
<path d="M0 0 C0.66 0.33 1.32 0.66 2 1 C1.67 2.32 1.34 3.64 1 5 C-19.13 5 -39.26 5 -60 5 C-60 4.67 -60 4.34 -60 4 C-58.9830883 3.99120064 -58.9830883 3.99120064 -57.94563293 3.98222351 C-50.88885465 3.91828421 -43.83253219 3.83386255 -36.77612305 3.73754883 C-34.14272064 3.70429675 -31.50924691 3.67626576 -28.87573242 3.65356445 C-25.09002289 3.62002471 -21.30496711 3.5677068 -17.51953125 3.51171875 C-15.7536541 3.50213387 -15.7536541 3.50213387 -13.95210266 3.49235535 C-12.85133896 3.47256119 -11.75057526 3.45276703 -10.61645508 3.43237305 C-9.16750603 3.41571846 -9.16750603 3.41571846 -7.68928528 3.39872742 C-4.5515213 2.93350622 -2.66840102 1.65512951 0 0 Z " fill="#AA6DED" transform="translate(99,78)"/>
<path d="M0 0 C0.33 0 0.66 0 1 0 C1.08636719 0.7734375 1.17273438 1.546875 1.26171875 2.34375 C2.16465462 9.03707281 3.29200124 14.90083221 8 20 C8.99 20.33 9.98 20.66 11 21 C12.37562854 22.28965176 13.70766393 23.62689293 15 25 C15.5775 25.5775 16.155 26.155 16.75 26.75 C17.1625 27.1625 17.575 27.575 18 28 C11.11897957 26.4517704 6.32256709 22.31951805 2.34375 16.6328125 C-1.01730905 10.63892386 -1.40343439 6.69330249 0 0 Z " fill="#D349CA" transform="translate(13,67)"/>
<path d="M0 0 C0.66 0 1.32 0 2 0 C1.01 3.3 0.02 6.6 -1 10 C-0.34 10.33 0.32 10.66 1 11 C-0.32 14.3 -1.64 17.6 -3 21 C-3.33 21 -3.66 21 -4 21 C-4.61187085 13.16465389 -3.06459719 7.1963309 0 0 Z " fill="#FE98F3" transform="translate(15,50)"/>
<path d="M0 0 C0.66 0 1.32 0 2 0 C2.391875 1.010625 2.78375 2.02125 3.1875 3.0625 C4.90184842 7.05181316 7.03618617 10.8012497 10 14 C10.99 14.33 11.98 14.66 13 15 C13 15.66 13 16.32 13 17 C8.71733781 16.26001517 7.07752661 14.38823494 4.39453125 11.12109375 C2.12963857 7.67617295 1.0252037 3.96591956 0 0 Z " fill="#DC82F4" transform="translate(35,114)"/>
<path d="M0 0 C6.7645019 0.34689753 12.31516866 4.31516866 17 9 C16.67 9.99 16.34 10.98 16 12 C11.2866242 8.30573248 11.2866242 8.30573248 9.59375 6.5 C7.7880549 4.80052226 6.04700986 3.87480797 3.8125 2.8125 C3.09707031 2.46832031 2.38164063 2.12414063 1.64453125 1.76953125 C1.10183594 1.51558594 0.55914062 1.26164062 0 1 C0 0.67 0 0.34 0 0 Z " fill="#947DFB" transform="translate(97,36)"/>
<path d="M0 0 C0.66 0 1.32 0 2 0 C2 3.63 2 7.26 2 11 C-1.10411749 11.16762833 -4.20828779 11.33414317 -7.3125 11.5 C-8.19357422 11.54769531 -9.07464844 11.59539063 -9.98242188 11.64453125 C-11.25375977 11.71220703 -11.25375977 11.71220703 -12.55078125 11.78125 C-13.33106689 11.82314453 -14.11135254 11.86503906 -14.9152832 11.90820312 C-16.60882396 11.98277524 -18.30481821 12 -20 12 C-19.67 11.34 -19.34 10.68 -19 10 C-12.4 10 -5.8 10 1 10 C0.505 5.05 0.505 5.05 0 0 Z " fill="#DB71E7" transform="translate(57,25)"/>
<path d="M0 0 C0.99 0.66 1.98 1.32 3 2 C3.54337501 5.57075009 3.43720456 7.33544906 1.4375 10.375 C-1.88627553 12.59085036 -4.08894954 12.50698802 -8 12 C-8.66 11.01 -9.32 10.02 -10 9 C-7.98177083 9.26041667 -5.96354167 9.52083333 -3.9453125 9.78125 C-1.99501656 10.0372485 -1.99501656 10.0372485 0 10 C0 6.7 0 3.4 0 0 Z " fill="#8D5FE7" transform="translate(90,61)"/>
<path d="M0 0 C0.66 0.33 1.32 0.66 2 1 C1.360625 1.226875 0.72125 1.45375 0.0625 1.6875 C-2.23436474 2.82985584 -2.23436474 2.82985584 -2.6875 5.375 C-2.790625 6.24125 -2.89375 7.1075 -3 8 C-3.185625 8.66 -3.37125 9.32 -3.5625 10 C-4.08140857 12.37215345 -4.06724317 14.57924572 -4 17 C-6 15 -6 15 -6.3125 11.1875 C-6.2156365 7.37522946 -5.41508052 5.0412125 -3 2 C-2.01 1.34 -1.02 0.68 0 0 Z " fill="#D56AE0" transform="translate(59,5)"/>
<path d="M0 0 C0.99 0 1.98 0 3 0 C3.39253254 4.44870215 2.15305957 7.14243493 0 11 C-0.66 11 -1.32 11 -2 11 C-1.34 7.37 -0.68 3.74 0 0 Z " fill="#9F7CFD" transform="translate(82,104)"/>
<path d="M0 0 C0.99 0.33 1.98 0.66 3 1 C1.61133677 1.9893091 0.21370149 2.96603078 -1.1875 3.9375 C-1.96480469 4.48277344 -2.74210937 5.02804688 -3.54296875 5.58984375 C-6.07950299 7.0456289 -8.1218182 7.59613435 -11 8 C-8.62567936 5.37575087 -6.05729109 3.75794238 -3 2 C-2.01 1.34 -1.02 0.68 0 0 Z " fill="#7166F5" transform="translate(110,88)"/>
<path d="M0 0 C0.52078125 0.15339844 1.0415625 0.30679688 1.578125 0.46484375 C4.63278515 1.13982511 7.63015971 1.34411118 10.75 1.5625 C11.92046875 1.64628906 13.0909375 1.73007813 14.296875 1.81640625 C15.18890625 1.87699219 16.0809375 1.93757812 17 2 C17 2.33 17 2.66 17 3 C10.73 3 4.46 3 -2 3 C-1.34 2.67 -0.68 2.34 0 2 C0 1.34 0 0.68 0 0 Z " fill="#BB87FB" transform="translate(61,134)"/>
<path d="M0 0 C0.66 0.33 1.32 0.66 2 1 C0.68 4.3 -0.64 7.6 -2 11 C-2.33 11 -2.66 11 -3 11 C-3.39253254 6.55129785 -2.15305957 3.85756507 0 0 Z " fill="#F36FE5" transform="translate(14,60)"/>
<path d="M0 0 C0.33 0 0.66 0 1 0 C1.12375 1.2375 1.2475 2.475 1.375 3.75 C1.75746305 6.8762197 2.30549523 9.28879237 4 12 C3.01 12 2.02 12 1 12 C0.63762737 10.37681021 0.28534843 8.7513642 -0.0625 7.125 C-0.25972656 6.22007813 -0.45695312 5.31515625 -0.66015625 4.3828125 C-1 2 -1 2 0 0 Z " fill="#B947C9" transform="translate(55,13)"/>
<path d="M0 0 C0.33 0 0.66 0 1 0 C0.50769231 6.4 0.50769231 6.4 -2.0625 9.4375 C-2.701875 9.953125 -3.34125 10.46875 -4 11 C-3.25 6.25 -3.25 6.25 -1 4 C-0.3574765 1.93125966 -0.3574765 1.93125966 0 0 Z " fill="#9C8DFE" transform="translate(94,117)"/>
</svg>
